<?xml version="1.0" encoding="UTF-8"?>
<svg width="174px" height="51px" viewBox="0 0 174 51" version="1.1" xmlns="http://www.w3.org/2000/svg" xmlns:xlink="http://www.w3.org/1999/xlink">
    <!-- Generator: Sketch 57.1 (83088) - https://sketch.com -->
    <title>Group 3</title>
    <desc>Created with Sketch.</desc>
    <defs>
        <polygon id="path-1" points="78.1007752 4.41860465 77.4806202 8.75968992 70 8.75968992 70 15.503876 76.5891473 15.503876 76.5891473 19.7674419 70 19.7674419 70 26.8604651 77.9844961 26.8604651 77.9844961 31.2790698 63.9147287 31.2790698 63.9147287 4.41860465"></polygon>
        <path d="M90.7751938,10.0387597 C92.2480694,10.0387597 93.4043886,10.5684702 94.244186,11.627907 C95.0839835,12.6873438 95.503876,14.1085182 95.503876,15.8914729 L95.503876,31.2790698 L89.6511628,31.2790698 L89.6511628,16.5116279 C89.6511628,15.1679519 89.2764895,14.496124 88.5271318,14.496124 C87.777774,14.496124 86.9638287,15.3229891 86.0852713,16.9767442 L86.0852713,31.2790698 L80.2325581,31.2790698 L80.2325581,10.6976744 L85.3100775,10.6976744 L85.7364341,13.1395349 C86.4082721,12.105938 87.1446988,11.3307519 87.9457364,10.8139535 C88.746774,10.297155 89.6899171,10.0387597 90.7751938,10.0387597 Z" id="path-2"></path>
        <path d="M23.7596899,31.2790698 L18.0232558,31.2790698 L17.7906977,20.620155 C17.7131779,18.1653624 17.6744186,15.7752054 17.6744186,13.4496124 C17.6744186,11.8216973 17.6873384,10.620155 17.7131783,9.84496124 L14.7286822,28.4108527 L9.03100775,28.4108527 L5.89147287,9.80620155 C5.94315271,11.2532372 5.96899225,13.2687209 5.96899225,15.8527132 C5.96899225,17.9457469 5.95607248,19.5607178 5.93023256,20.6976744 L5.69767442,31.2790698 L0,31.2790698 L1.62790698,4.41860465 L9.14728682,4.41860465 L11.9767442,22.7906977 L14.5348837,4.41860465 L22.1705426,4.41860465 L23.7596899,31.2790698 Z M40.6976744,25.8139535 C40.6976744,26.4599516 40.775193,26.9379829 40.9302326,27.248062 C41.0852721,27.5581411 41.3565872,27.8036167 41.744186,27.9844961 L40.5426357,31.8217054 C39.431519,31.7183457 38.5206754,31.4534905 37.8100775,31.0271318 C37.0994797,30.6007731 36.5503876,29.935405 36.1627907,29.0310078 C34.9741543,30.9690019 33.2816647,31.9379845 31.0852713,31.9379845 C29.3798364,31.9379845 28.0232609,31.3501351 27.0155039,30.1744186 C26.0077469,28.9987021 25.503876,27.4418702 25.503876,25.503876 C25.503876,23.2558027 26.2015434,21.5439335 27.5968992,20.3682171 C28.992255,19.1925006 31.0335783,18.6046512 33.7209302,18.6046512 L34.9612403,18.6046512 L34.9612403,17.5193798 C34.9612403,16.2790636 34.7739037,15.419899 34.3992248,14.9418605 C34.0245459,14.4638219 33.3591779,14.2248062 32.4031008,14.2248062 C31.2144643,14.2248062 29.7416109,14.5736399 27.9844961,15.2713178 L26.6666667,11.5503876 C27.7261035,11.0594291 28.8565831,10.6847558 30.0581395,10.4263566 C31.2596959,10.1679574 32.4030953,10.0387597 33.4883721,10.0387597 C35.9173248,10.0387597 37.7260922,10.6266091 38.9147287,11.8023256 C40.1033651,12.9780421 40.6976744,14.7803496 40.6976744,17.2093023 L40.6976744,25.8139535 Z M32.8682171,27.7906977 C33.3074957,27.7906977 33.7080085,27.6227407 34.0697674,27.2868217 C34.4315264,26.9509027 34.7286822,26.4728713 34.9612403,25.8527132 L34.9612403,21.8604651 L34.2635659,21.8604651 C33.2041291,21.8604651 32.4354029,22.1124006 31.9573643,22.6162791 C31.4793258,23.1201576 31.2403101,23.9147233 31.2403101,25 C31.2403101,25.9043973 31.3824275,26.5956048 31.6666667,27.0736434 C31.9509058,27.551682 32.3514186,27.7906977 32.8682171,27.7906977 Z M54.6511628,10.0387597 C56.6666767,10.0387597 58.2041291,10.9754428 59.2635659,12.8488372 C60.3230027,14.7222316 60.8527132,17.4160031 60.8527132,20.9302326 C60.8527132,23.1524659 60.5749382,25.0968909 60.0193798,26.7635659 C59.4638215,28.4302409 58.6821756,29.7092979 57.6744186,30.6007752 C56.6666616,31.4922525 55.478043,31.9379845 54.1085271,31.9379845 C52.5064519,31.9379845 51.1757159,31.2532368 50.1162791,29.8837209 L50.1162791,39.2248062 L44.2635659,39.8449612 L44.2635659,10.6976744 L49.4573643,10.6976744 L49.6899225,12.9457364 C50.3617605,11.9379795 51.0981872,11.2015504 51.8992248,10.7364341 C52.7002624,10.2713155 53.6175659,10.0387597 54.6511628,10.0387597 Z M52.4031008,27.5968992 C53.1782984,27.5968992 53.7790676,27.0930283 54.2054264,26.0852713 C54.6317851,25.0775143 54.8449612,23.3850248 54.8449612,21.0077519 C54.8449612,18.4495996 54.6640845,16.6989711 54.3023256,15.755814 C53.9405667,14.8126568 53.3850167,14.3410853 52.6356589,14.3410853 C51.7054217,14.3410853 50.8656368,15.0645922 50.1162791,16.5116279 L50.1162791,26.0077519 C50.7622771,27.0671888 51.5245434,27.5968992 52.4031008,27.5968992 Z" id="path-3"></path>
        <path d="M134.844961,10.6976744 L134.844961,31.2790698 L128.992248,31.2790698 L128.992248,10.6976744 L134.844961,10.6976744 Z M131.860465,0 C132.868222,0 133.675708,0.316534302 134.282946,0.949612403 C134.890184,1.5826905 135.193798,2.39017597 135.193798,3.37209302 C135.193798,4.32817016 134.883724,5.12273585 134.263566,5.75581395 C133.643408,6.38889205 132.842382,6.70542636 131.860465,6.70542636 C130.878548,6.70542636 130.077519,6.38889205 129.457364,5.75581395 C128.837206,5.12273585 128.527132,4.32817016 128.527132,3.37209302 C128.527132,2.39017597 128.837206,1.5826905 129.457364,0.949612403 C130.077519,0.316534302 130.878548,0 131.860465,0 Z M148.837209,10.0387597 C150.310085,10.0387597 151.466404,10.5684702 152.306202,11.627907 C153.145999,12.6873438 153.565891,14.1085182 153.565891,15.8914729 L153.565891,31.2790698 L147.713178,31.2790698 L147.713178,16.5116279 C147.713178,15.1679519 147.338505,14.496124 146.589147,14.496124 C145.83979,14.496124 145.025844,15.3229891 144.147287,16.9767442 L144.147287,31.2790698 L138.294574,31.2790698 L138.294574,10.6976744 L143.372093,10.6976744 L143.79845,13.1395349 C144.470288,12.105938 145.206714,11.3307519 146.007752,10.8139535 C146.80879,10.297155 147.751933,10.0387597 148.837209,10.0387597 Z M172.55814,20.5813953 C172.55814,21.4082729 172.51938,22.1188601 172.44186,22.7131783 L161.976744,22.7131783 C162.105944,24.5736527 162.448318,25.8591696 163.003876,26.5697674 C163.559434,27.2803653 164.36692,27.6356589 165.426357,27.6356589 C166.124034,27.6356589 166.795862,27.5000014 167.44186,27.2286822 C168.087859,26.957363 168.785526,26.5374705 169.534884,25.9689922 L171.937984,29.1472868 C170.02583,31.0077612 167.713192,31.9379845 165,31.9379845 C162.105929,31.9379845 159.909568,30.9883816 158.410853,29.0891473 C156.912137,27.189913 156.162791,24.5349008 156.162791,21.124031 C156.162791,17.7131612 156.879838,15.0129298 158.313953,13.0232558 C159.748069,11.0335818 161.795852,10.0387597 164.457364,10.0387597 C166.989677,10.0387597 168.972861,10.9366835 170.406977,12.7325581 C171.841092,14.5284328 172.55814,17.1446857 172.55814,20.5813953 Z M166.860465,18.9147287 C166.860465,17.157614 166.686048,15.8850169 166.337209,15.0968992 C165.98837,14.3087816 165.374681,13.9147287 164.496124,13.9147287 C163.720926,13.9147287 163.133077,14.2958618 162.732558,15.0581395 C162.332039,15.8204172 162.080104,17.1963725 161.976744,19.1860465 L166.860465,19.1860465 L166.860465,18.9147287 Z" id="path-4"></path>
    </defs>
    <g id="Page-1" stroke="none" stroke-width="1" fill="none" fill-rule="evenodd">
        <g id="Group-3" transform="translate(0.700000, 0.300000)" fill-rule="nonzero">
            <g id="Group-2" transform="translate(98.062016, 3.875969)" fill="#173058">
                <path d="M13.8389591,45.947543 C12.0289769,45.719945 12.5763285,45.4332151 15.112422,45.2804527 C18.9855571,45.0471671 21.3514719,43.842931 21.3514719,42.1048492 C21.3514719,40.4340419 20.5216663,39.9596713 13.6463371,37.7000806 C7.6461912,35.7281142 6.24231911,35.115857 3.80744775,33.4091631 C0.171485183,30.8605786 -0.863179295,27.2034997 1.08266679,23.7782701 C1.7752714,22.5590678 3.76311859,20.156544 4.28642969,20.4511666 C4.5588693,20.6045491 7.8788231,23.9562366 8.0600262,24.199125 C6.7710174,25.0158246 5.65673748,25.8550044 5.59922884,27.63252 C5.59730484,29.3445023 7.6584664,30.5120245 15.652318,32.0505477 C18.6037279,32.6185865 22.1404598,33.6104715 23.5114987,34.1801272 C27.1051716,35.6732811 28.296027,38.9708489 26.2500363,41.763343 C25.2750161,43.094138 22.7726409,44.7086 20.7225135,45.3295504 C19.1025945,45.8202047 15.4407252,46.1489752 13.8389591,45.947543 L13.8389591,45.947543 Z" id="path51793"></path>
                <path d="M15.8046542,26.7367702 L14.5540772,23.9162675 C14.0804448,23.752163 13.5300828,23.5297674 12.9030006,23.2490768 C12.2759184,22.9683909 11.6338277,22.6125553 10.9767381,22.1815787 C10.2110013,22.7057472 9.71364422,23.0162721 8.96064729,23.5507122 C8.79035643,23.6448105 8.6262319,23.4975297 8.6262319,23.4975297 C8.56389016,23.4640931 8.10200872,23.0185608 6.7438219,21.6817045 C5.75393609,20.707371 4.91729648,19.8781039 4.88461313,19.8388827 C4.76319703,19.6931655 4.67990344,19.6708638 4.76999354,19.4868187 C5.09755425,18.9477185 5.6060805,18.0579412 6.16108671,17.1109738 C5.82256047,16.5052609 5.50151508,15.8380758 5.19796031,15.1094081 C4.74263299,14.0164105 4.6968026,13.6007201 4.64759821,13.5081554 C2.81262805,12.958162 1.86520828,12.6541711 1.80534858,12.5961827 C1.66553053,12.460755 1.67246278,12.5301745 1.66752779,11.2172495 C1.66461916,10.581752 1.66946688,9.61117589 1.6762537,9.0604105 C1.68876082,8.09477182 1.69040905,8.05649368 1.72221012,7.98827306 C1.75750155,7.91247655 1.80791788,7.87073349 1.91140709,7.83161756 C2.81893979,7.76229961 3.66561416,7.82907876 4.64773395,7.77033907 C4.8020176,7.25446302 4.93960571,6.85415008 5.06049825,6.5693993 C5.1536715,6.35005016 5.33708998,5.99421934 5.61086035,5.50189655 C4.7130037,3.974871 4.261477,3.17656479 4.25628024,3.10698264 C4.24513047,2.95691383 4.28507572,2.89334763 4.54524336,2.64800051 C5.22184989,2.00985428 6.0341345,1.40952355 6.83450341,0.956084415 C7.16635922,0.768074097 7.24260422,0.749081244 7.39292244,0.816959601 C7.48541702,0.858764744 7.65045291,0.998735818 8.43972054,1.70519764 C8.88741756,2.1059196 9.0340612,2.18256802 9.32578752,2.43282719 C9.4049024,2.41330684 9.75901891,2.23694009 10.426502,2.03251425 C10.871494,1.8962338 11.4218464,1.76279772 12.0775786,1.6322013 C12.0888253,0.82190645 12.1010416,0.404219828 12.1141305,0.379138621 C12.1511671,0.308419661 12.2286434,0.271317829 12.3394527,0.271317829 C12.4391219,0.271317829 13.0112503,0.382114628 13.8081676,0.555816605 C14.1052264,0.620564745 14.6520788,0.73882836 15.023395,0.818623907 C15.7499525,0.974754748 15.8113926,0.994443411 15.924839,1.10749972 C15.9816543,1.16408617 17.2116188,3.05670552 17.197192,3.06528939 C17.1942834,3.06726399 17.0702204,3.06489071 16.9216959,3.06021184 C16.5878719,3.05002854 15.9246063,3.06528939 15.6588056,3.08931371 C12.9730599,3.33170081 10.8752267,4.59054248 9.89235074,6.54957709 C8.8819493,8.56348872 9.06674457,11.1638872 10.4260172,14.0592142 C10.5987902,14.4272396 11.0099741,15.2218495 11.1197653,15.399889 C11.7793272,16.4694651 12.8692119,17.5451079 14.189412,18.4294127 C15.8444928,19.5380295 17.6459264,20.215412 19.3918729,20.3856641 C19.7140333,20.4170885 20.4396697,20.4215266 20.7341786,20.3939386 C22.7682157,20.2032005 24.37257,19.2513399 25.6071689,17.5028176 C25.7406752,17.3137334 25.9627203,16.9611711 26.0738981,16.7617626 C26.1140372,16.6897648 26.1489408,16.6329311 26.1514616,16.635468 C26.1543703,16.6380068 26.1390515,16.9173895 26.1184002,17.2563205 C26.0597427,18.2172737 26.0665295,18.3624812 26.1815175,18.5984575 C26.2108947,18.6587674 26.5430899,19.1556582 26.9197192,19.7026464 C27.2963486,20.2496394 27.6116833,20.715495 27.6204577,20.737887 C27.6456659,20.8021274 27.6383943,20.9764105 27.606981,21.0616023 C27.5705262,21.1605271 25.9306187,23.8410596 25.884226,23.8775681 C25.7693834,23.9679579 25.6109598,23.9976089 25.49189,23.9509857 C25.4613493,23.9390347 23.6919592,22.8118115 23.359958,22.5818512 C22.8835528,22.8325749 22.5166383,23.0104931 22.2592435,23.1156002 C21.9357064,23.2477152 21.4312134,23.4256288 20.745755,23.6493502 C20.7467245,23.7796081 20.7535114,24.6057421 20.7726114,25.0209351 C20.8273907,26.2214179 20.8332079,26.4660805 20.8107145,26.6191686 C20.7997586,26.6932631 20.779786,26.7746355 20.7662124,26.8000421 C20.7341205,26.8603145 20.6438849,26.9037275 20.5266088,26.9153776 C20.4094878,26.9270372 16.6232118,27.0162328 16.2816702,27.0155083 C16.1104098,27.0149916 16.0170427,27.0079771 15.9837776,26.9943429 C15.9326826,26.9727163 15.8730653,26.8869058 15.8048578,26.7367232 L15.8046542,26.7367702 Z" id="path51775"></path>
            </g>
            <g id="Group">
                <g id="Path">
                    <use fill="#000000" xlink:href="#path-1"></use>
                    <use fill="#173058" xlink:href="#path-1"></use>
                </g>
                <g id="Path">
                    <use fill="#000000" xlink:href="#path-2"></use>
                    <use fill="#173058" xlink:href="#path-2"></use>
                </g>
                <g id="Map">
                    <use fill="#000000" xlink:href="#path-3"></use>
                    <use fill="#FE7D00" xlink:href="#path-3"></use>
                </g>
                <g id="ine">
                    <use fill="#000000" xlink:href="#path-4"></use>
                    <use fill="#173058" xlink:href="#path-4"></use>
                </g>
            </g>
            <path d="M118.345711,8.4447236 C119.177345,8.54970353 119.973167,8.82139204 120.655745,9.23337426 C125.885527,13.1252955 121.036478,18.9273971 118.442516,21.8704252 C118.10651,22.2469372 117.628645,22.751938 117.608378,22.751938 C117.598782,22.751938 117.47837,22.633383 117.34083,22.4884593 C116.076615,21.1565457 114.688908,19.4056691 113.859145,18.0956366 C113.54496,17.5996101 113.4763,17.4834766 113.230324,17.0321624 C112.915525,16.4545471 112.700918,15.9995615 112.525368,15.5375386 C111.843039,13.8581379 112.075561,11.9369021 113.008751,10.6379316 C113.894084,9.43393092 115.287002,8.64296435 116.870469,8.44505728 C117.234313,8.39955891 117.986684,8.39945523 118.345711,8.4447236 Z M117.199577,11.9202358 C116.361268,12.0657466 115.684539,12.7005187 115.478466,13.5346737 C115.408766,13.8166833 115.409043,14.2475554 115.478963,14.5340369 C115.650261,15.235172 116.183673,15.8273976 116.849117,16.0552735 C117.134764,16.1530952 117.25269,16.1693976 117.612186,16.160789 C117.901548,16.1542477 117.983085,16.1435422 118.144731,16.093055 L118.144786,16.0929675 C118.520351,15.9757903 118.777897,15.8239142 119.048894,15.5597529 C119.69199,14.9328976 119.872296,13.9528955 119.493596,13.1425828 C119.374305,12.8873111 119.238475,12.6929982 119.051052,12.5094672 C118.784129,12.2481122 118.518673,12.0918083 118.144786,11.9758914 C117.912289,11.9037722 117.45055,11.8765681 117.199577,11.9202358 Z" id="Combined-Shape" fill="#FE7D00"></path>
        </g>
    </g>
</svg>