<?xml version="1.0" encoding="UTF-8"?>
<svg width="20px" height="20px" viewBox="0 0 67 69" version="1.1" xmlns="http://www.w3.org/2000/svg" xmlns:xlink="http://www.w3.org/1999/xlink">
    <g stroke="none" stroke-width="1" fill="none" fill-rule="evenodd">
        <g transform="translate(-0.000000, -0.000000)" fill-rule="nonzero">
            <path d="M36.4760079,68.2808671 L33.2495191,61.0039702 C32.0275477,60.5805806 30.6076135,60.0067998 28.9897415,59.2826181 C27.3718695,58.5584484 25.7152754,57.6403928 24.0199843,56.5284731 C22.0443834,57.8808277 20.7612021,58.6819821 18.81847,60.0608376 C18.3791196,60.3036111 17.9556783,59.9236265 17.9556783,59.9236265 C17.7948366,59.8373601 16.6031825,58.6878868 13.0990605,55.2387975 C10.5451551,52.7250171 8.38662492,50.5855081 8.30230187,50.4843174 C7.98904835,50.1083671 7.77415088,50.0508286 8.00658334,49.5759922 C8.85168996,48.1851137 10.1636877,45.8894883 11.5956037,43.4463124 C10.722206,41.883573 9.89390891,40.1622355 9.11073759,38.282273 C7.93599311,35.462339 7.81775072,34.3898578 7.69080338,34.151041 C2.95658038,32.732058 0.512237362,31.9477614 0.357799349,31.7981513 C-0.00293122893,31.448748 0.0149539637,31.6278503 0.00222170769,28.2405036 C-0.00528256894,26.6009202 0.00722455879,24.0968338 0.0247345376,22.6758591 C0.0570029271,20.1845113 0.0612553506,20.0857537 0.143302108,19.9097445 C0.234353998,19.7141895 0.364428127,19.6064924 0.631430289,19.5055733 C2.97286466,19.326733 5.15728454,19.4990232 7.69115358,19.3474748 C8.08920542,18.0165146 8.44418272,16.9837072 8.75608548,16.2490502 C8.99647247,15.6831294 9.46969215,14.7650859 10.1760197,13.4948931 C7.85954955,9.55516717 6.69461065,7.49553717 6.68120301,7.31601522 C6.65243662,6.92883768 6.75549535,6.76483689 7.42672788,6.13184132 C9.17237271,4.48542404 11.268067,2.93657077 13.3330188,1.76669779 C14.1892068,1.28163117 14.3859189,1.23262961 14.7737399,1.40775577 C15.0123759,1.51561304 15.4381685,1.87673841 17.474479,3.69940991 C18.6295373,4.73327258 19.0078779,4.93102548 19.7605318,5.57669415 C19.9646482,5.52633165 20.8782688,5.07130543 22.6003752,4.54388676 C23.7484545,4.1922832 25.1683637,3.84801811 26.8601529,3.51107936 C26.8891694,1.42051864 26.9206874,0.342887155 26.9544566,0.278177642 C27.0500111,0.0957227247 27.2499,0 27.5357879,0 C27.7929344,0 29.2690257,0.285855741 31.3250724,0.734006841 C32.0914842,0.901057041 33.5023632,1.20617717 34.4603592,1.41204968 C36.3348774,1.81486725 36.4933928,1.865664 36.7860846,2.15734927 C36.9326681,2.30334232 40.1059766,7.18630023 40.0687554,7.20844663 C40.0612511,7.2135411 39.7411687,7.20741803 39.3579753,7.19534655 C38.4967095,7.16907363 36.7854842,7.20844663 36.0997184,7.27042938 C29.1704945,7.89578809 23.758085,11.1435996 21.2222649,16.1979089 C18.6154292,21.3938009 19.092201,28.1028291 22.5991245,35.5727726 C23.0448786,36.5222781 24.1057331,38.5723717 24.3889946,39.0317137 C26.0906643,41.79122 28.9025668,44.5663784 32.3086829,46.8478848 C36.5787914,49.7081161 41.2264901,51.455763 45.7310322,51.8950134 C46.5622059,51.9760883 48.4343478,51.9875387 49.1941809,51.9163616 C54.4419966,51.4242574 58.5812305,48.9684569 61.7664957,44.4572693 C62.110942,43.9694323 62.6838185,43.0598214 62.970657,42.5453475 C63.074216,42.3595933 63.1642673,42.2129623 63.170771,42.2195075 C63.1782753,42.2260575 63.1387528,42.9468648 63.0854724,43.8213069 C62.9341362,46.3005662 62.9516462,46.6752016 63.2483152,47.2840203 C63.3241084,47.43962 64.1811719,48.7215981 65.1528756,50.1328278 C66.1245794,51.5440697 66.938143,52.7459772 66.9607809,52.8037485 C67.025818,52.9694887 67.0070573,53.419139 66.9260111,53.638934 C66.8319575,53.8941598 62.6009963,60.8099338 62.4813031,60.9041258 C62.1850093,61.1373314 61.7762763,61.2138309 61.4690763,61.0935431 C61.3902813,61.0627095 56.8252548,58.1544737 55.9686916,57.5611762 C54.7395661,58.2080433 53.7929267,58.6670723 53.1288482,58.9382486 C52.2941225,59.2791053 50.9925307,59.7381222 49.2240479,60.3153236 C49.2265493,60.651389 49.2440593,62.7828147 49.2933374,63.8540125 C49.4346679,66.9512581 49.4496765,67.5824876 49.3916434,67.9774549 C49.3633773,68.1686189 49.3118479,68.3785597 49.276828,68.4441086 C49.1940308,68.5996113 48.9612231,68.711617 48.6586507,68.7416743 C48.3564785,68.771756 38.5878864,69.0018806 37.7067092,69.0000115 C37.2648574,68.9986784 37.0239702,68.9805809 36.9381462,68.9454048 C36.8063211,68.8896081 36.6525085,68.6682169 36.4765332,68.2807458 L36.4760079,68.2808671 Z" id="me-cog" fill="#FFFFFF"></path>
            <path d="M48.0319349,11.0873869 C50.1775504,11.3582351 52.2307696,12.0591915 53.9918212,13.1221056 C67.484659,23.1632625 54.9741142,38.1326845 48.2816922,45.7256971 C47.4147956,46.697098 46.1819035,48 46.1296149,48 C46.104857,48 45.7941954,47.6941282 45.4393409,47.3202251 C42.1776656,43.883888 38.5973814,39.3666263 36.4565937,35.9867423 C35.6459965,34.706994 35.468854,34.4073696 34.8342356,33.2429789 C34.0220539,31.7527314 33.468369,30.5788686 33.0154487,29.3868495 C31.2550408,25.0539957 31.8549486,20.0972073 34.2625766,16.7458636 C36.5467371,13.6395418 40.1404648,11.598848 44.2258095,11.0882478 C45.1645286,10.970862 47.1056442,10.9705945 48.0319349,11.0873869 Z M45.0749085,20.0542083 C42.912071,20.4296263 41.1661116,22.0673383 40.634441,24.2194582 C40.4546168,24.9470429 40.4553304,26.0586929 40.6357255,26.7978152 C41.0776743,28.6067438 42.4538762,30.1346859 44.1707212,30.7226056 C44.907691,30.9749855 45.2119411,31.0170457 46.1394389,30.9948355 C46.8859946,30.9779591 47.0963604,30.9503389 47.5134049,30.820082 L47.5135477,30.8198562 C48.4825049,30.517539 49.1469742,30.1256986 49.8461477,29.4441626 C51.5053348,27.8268757 51.9705228,25.2984703 50.9934782,23.2078635 C50.6857077,22.5492627 50.3352647,22.0479353 49.8517137,21.5744253 C49.1630537,20.9001295 48.4781758,20.4968655 47.5135477,20.1977999 C46.9137056,20.0117322 45.7224181,19.9415456 45.0749085,20.0542083 Z" id="me-marker" fill="#FFFFFF"></path>
        </g>
    </g>
</svg>
